<mxfile host="Electron" modified="2023-10-01T07:39:40.457Z" agent="Mozilla/5.0 (Windows NT 10.0; Win64; x64) AppleWebKit/537.36 (KHTML, like Gecko) draw.io/21.6.8 Chrome/114.0.5735.289 Electron/25.5.0 Safari/537.36" etag="3xF9guCAX5uzQktUenMB" version="21.6.8" type="device">
  <diagram name="Page-1" id="7UJvqwtA53lMrA3YZl_T">
    <mxGraphModel dx="627" dy="459" grid="1" gridSize="10" guides="1" tooltips="1" connect="1" arrows="1" fold="1" page="1" pageScale="1" pageWidth="850" pageHeight="1100" math="0" shadow="0">
      <root>
        <mxCell id="0" />
        <mxCell id="1" parent="0" />
        <mxCell id="1Dst-Pp7yCYSwZfz3Zx6-1" value="" style="rounded=0;whiteSpace=wrap;html=1;fillColor=#f5f5f5;fontColor=#333333;strokeColor=#0D0D0D;" parent="1" vertex="1">
          <mxGeometry x="150" y="250" width="150" height="50" as="geometry" />
        </mxCell>
        <mxCell id="1Dst-Pp7yCYSwZfz3Zx6-3" value="0x00" style="text;html=1;strokeColor=none;fillColor=none;align=center;verticalAlign=middle;whiteSpace=wrap;rounded=0;fontFamily=Computer Modern;" parent="1" vertex="1">
          <mxGeometry x="120" y="295" width="80" height="30" as="geometry" />
        </mxCell>
        <mxCell id="1Dst-Pp7yCYSwZfz3Zx6-6" value="0x20000000" style="text;html=1;strokeColor=none;fillColor=none;align=center;verticalAlign=middle;whiteSpace=wrap;rounded=0;fontFamily=Computer Modern;" parent="1" vertex="1">
          <mxGeometry x="190" y="295" width="80" height="30" as="geometry" />
        </mxCell>
        <mxCell id="1Dst-Pp7yCYSwZfz3Zx6-7" value="0x30000000" style="text;html=1;strokeColor=none;fillColor=none;align=center;verticalAlign=middle;whiteSpace=wrap;rounded=0;fontFamily=Computer Modern;" parent="1" vertex="1">
          <mxGeometry x="285" y="295" width="80" height="30" as="geometry" />
        </mxCell>
        <mxCell id="1Dst-Pp7yCYSwZfz3Zx6-11" value="RAM" style="rounded=0;whiteSpace=wrap;html=1;fontFamily=Computer Modern;" parent="1" vertex="1">
          <mxGeometry x="150" y="250" width="50" height="50" as="geometry" />
        </mxCell>
        <mxCell id="1Dst-Pp7yCYSwZfz3Zx6-12" value="MMIOs" style="rounded=0;whiteSpace=wrap;html=1;fontFamily=Computer Modern;" parent="1" vertex="1">
          <mxGeometry x="200" y="250" width="50" height="50" as="geometry" />
        </mxCell>
        <mxCell id="1Dst-Pp7yCYSwZfz3Zx6-13" value="Debug&lt;br&gt;monitor" style="rounded=0;whiteSpace=wrap;html=1;fontFamily=Computer Modern;" parent="1" vertex="1">
          <mxGeometry x="295" y="250" width="50" height="50" as="geometry" />
        </mxCell>
        <mxCell id="1Dst-Pp7yCYSwZfz3Zx6-14" value="H" style="rounded=0;whiteSpace=wrap;html=1;fontColor=#0D0D0D;strokeColor=#0D0D0D;fontFamily=Computer Modern;fontSize=11;strokeWidth=0.5;" parent="1" vertex="1">
          <mxGeometry x="245" y="120" width="10" height="10" as="geometry" />
        </mxCell>
        <mxCell id="1Dst-Pp7yCYSwZfz3Zx6-15" value="e" style="rounded=0;whiteSpace=wrap;html=1;fontColor=#0D0D0D;strokeColor=#0D0D0D;fontFamily=Computer Modern;fontSize=11;strokeWidth=0.5;" parent="1" vertex="1">
          <mxGeometry x="255" y="120" width="10" height="10" as="geometry" />
        </mxCell>
        <mxCell id="1Dst-Pp7yCYSwZfz3Zx6-16" value="l" style="rounded=0;whiteSpace=wrap;html=1;fontColor=#0D0D0D;strokeColor=#0D0D0D;fontFamily=Computer Modern;fontSize=11;strokeWidth=0.5;" parent="1" vertex="1">
          <mxGeometry x="265" y="120" width="10" height="10" as="geometry" />
        </mxCell>
        <mxCell id="1Dst-Pp7yCYSwZfz3Zx6-17" value="l" style="rounded=0;whiteSpace=wrap;html=1;fontColor=#0D0D0D;strokeColor=#0D0D0D;fontFamily=Computer Modern;fontSize=11;strokeWidth=0.5;" parent="1" vertex="1">
          <mxGeometry x="275" y="120" width="10" height="10" as="geometry" />
        </mxCell>
        <mxCell id="1Dst-Pp7yCYSwZfz3Zx6-18" value="o" style="rounded=0;whiteSpace=wrap;html=1;fontColor=#0D0D0D;strokeColor=#0D0D0D;fontFamily=Computer Modern;fontSize=11;strokeWidth=0.5;" parent="1" vertex="1">
          <mxGeometry x="285" y="120" width="10" height="10" as="geometry" />
        </mxCell>
        <mxCell id="1Dst-Pp7yCYSwZfz3Zx6-19" value="" style="rounded=0;whiteSpace=wrap;html=1;fontColor=#B3B3B3;strokeColor=#0D0D0D;fontSize=11;strokeWidth=0.5;" parent="1" vertex="1">
          <mxGeometry x="295" y="120" width="10" height="10" as="geometry" />
        </mxCell>
        <mxCell id="1Dst-Pp7yCYSwZfz3Zx6-20" value="W" style="rounded=0;whiteSpace=wrap;html=1;fontColor=#0D0D0D;strokeColor=#0D0D0D;fontFamily=Computer Modern;fontSize=11;strokeWidth=0.5;" parent="1" vertex="1">
          <mxGeometry x="305" y="120" width="10" height="10" as="geometry" />
        </mxCell>
        <mxCell id="1Dst-Pp7yCYSwZfz3Zx6-21" value="o" style="rounded=0;whiteSpace=wrap;html=1;fontColor=#0D0D0D;strokeColor=#0D0D0D;fontFamily=Computer Modern;fontSize=11;strokeWidth=0.5;" parent="1" vertex="1">
          <mxGeometry x="315" y="120" width="10" height="10" as="geometry" />
        </mxCell>
        <mxCell id="1Dst-Pp7yCYSwZfz3Zx6-22" value="r" style="rounded=0;whiteSpace=wrap;html=1;fontColor=#0D0D0D;strokeColor=#0D0D0D;fontFamily=Computer Modern;fontSize=11;strokeWidth=0.5;" parent="1" vertex="1">
          <mxGeometry x="325" y="120" width="10" height="10" as="geometry" />
        </mxCell>
        <mxCell id="1Dst-Pp7yCYSwZfz3Zx6-23" value="l" style="rounded=0;whiteSpace=wrap;html=1;fontColor=#0D0D0D;strokeColor=#0D0D0D;fontFamily=Computer Modern;fontSize=11;strokeWidth=0.5;" parent="1" vertex="1">
          <mxGeometry x="335" y="120" width="10" height="10" as="geometry" />
        </mxCell>
        <mxCell id="1Dst-Pp7yCYSwZfz3Zx6-24" value="d" style="rounded=0;whiteSpace=wrap;html=1;fontColor=#0D0D0D;strokeColor=#0D0D0D;fontFamily=Computer Modern;fontSize=11;strokeWidth=0.5;" parent="1" vertex="1">
          <mxGeometry x="345" y="120" width="10" height="10" as="geometry" />
        </mxCell>
        <mxCell id="1Dst-Pp7yCYSwZfz3Zx6-25" value="!" style="rounded=0;whiteSpace=wrap;html=1;fontColor=#0D0D0D;strokeColor=#0D0D0D;fontFamily=Computer Modern;fontSize=11;strokeWidth=0.5;" parent="1" vertex="1">
          <mxGeometry x="355" y="120" width="10" height="10" as="geometry" />
        </mxCell>
        <mxCell id="1Dst-Pp7yCYSwZfz3Zx6-26" value="" style="rounded=0;whiteSpace=wrap;html=1;fontColor=#B3B3B3;strokeColor=#0D0D0D;strokeWidth=0.5;" parent="1" vertex="1">
          <mxGeometry x="365" y="120" width="10" height="10" as="geometry" />
        </mxCell>
        <mxCell id="1Dst-Pp7yCYSwZfz3Zx6-27" value="" style="rounded=0;whiteSpace=wrap;html=1;fontColor=#B3B3B3;strokeColor=#0D0D0D;strokeWidth=0.5;" parent="1" vertex="1">
          <mxGeometry x="375" y="120" width="10" height="10" as="geometry" />
        </mxCell>
        <mxCell id="1Dst-Pp7yCYSwZfz3Zx6-28" value="" style="rounded=0;whiteSpace=wrap;html=1;fontColor=#B3B3B3;strokeColor=#0D0D0D;strokeWidth=0.5;" parent="1" vertex="1">
          <mxGeometry x="385" y="120" width="10" height="10" as="geometry" />
        </mxCell>
        <mxCell id="1Dst-Pp7yCYSwZfz3Zx6-29" value="" style="rounded=0;whiteSpace=wrap;html=1;fontColor=#B3B3B3;strokeColor=#0D0D0D;strokeWidth=0.5;" parent="1" vertex="1">
          <mxGeometry x="395" y="120" width="10" height="10" as="geometry" />
        </mxCell>
        <mxCell id="1Dst-Pp7yCYSwZfz3Zx6-30" value="" style="rounded=0;whiteSpace=wrap;html=1;fontColor=#B3B3B3;strokeColor=#0D0D0D;strokeWidth=0.5;" parent="1" vertex="1">
          <mxGeometry x="405" y="120" width="10" height="10" as="geometry" />
        </mxCell>
        <mxCell id="1Dst-Pp7yCYSwZfz3Zx6-31" value="" style="rounded=0;whiteSpace=wrap;html=1;fontColor=#B3B3B3;strokeColor=#0D0D0D;strokeWidth=0.5;" parent="1" vertex="1">
          <mxGeometry x="415" y="120" width="10" height="10" as="geometry" />
        </mxCell>
        <mxCell id="1Dst-Pp7yCYSwZfz3Zx6-32" value="" style="rounded=0;whiteSpace=wrap;html=1;fontColor=#B3B3B3;strokeColor=#0D0D0D;strokeWidth=0.5;" parent="1" vertex="1">
          <mxGeometry x="425" y="120" width="10" height="10" as="geometry" />
        </mxCell>
        <mxCell id="1Dst-Pp7yCYSwZfz3Zx6-33" value="" style="rounded=0;whiteSpace=wrap;html=1;fontColor=#B3B3B3;strokeColor=#0D0D0D;strokeWidth=0.5;" parent="1" vertex="1">
          <mxGeometry x="435" y="120" width="10" height="10" as="geometry" />
        </mxCell>
        <mxCell id="1Dst-Pp7yCYSwZfz3Zx6-59" value="" style="rounded=0;whiteSpace=wrap;html=1;fontColor=#B3B3B3;strokeColor=#0D0D0D;strokeWidth=0.5;" parent="1" vertex="1">
          <mxGeometry x="477" y="120" width="10" height="10" as="geometry" />
        </mxCell>
        <mxCell id="1Dst-Pp7yCYSwZfz3Zx6-60" value="" style="rounded=0;whiteSpace=wrap;html=1;fontColor=#B3B3B3;strokeColor=#0D0D0D;strokeWidth=0.5;" parent="1" vertex="1">
          <mxGeometry x="487" y="120" width="10" height="10" as="geometry" />
        </mxCell>
        <mxCell id="1Dst-Pp7yCYSwZfz3Zx6-61" value="" style="rounded=0;whiteSpace=wrap;html=1;fontColor=#B3B3B3;strokeColor=#0D0D0D;strokeWidth=0.5;" parent="1" vertex="1">
          <mxGeometry x="497" y="120" width="10" height="10" as="geometry" />
        </mxCell>
        <mxCell id="1Dst-Pp7yCYSwZfz3Zx6-62" value="" style="rounded=0;whiteSpace=wrap;html=1;fontColor=#B3B3B3;strokeColor=#0D0D0D;strokeWidth=0.5;" parent="1" vertex="1">
          <mxGeometry x="507" y="120" width="10" height="10" as="geometry" />
        </mxCell>
        <mxCell id="1Dst-Pp7yCYSwZfz3Zx6-63" value="" style="rounded=0;whiteSpace=wrap;html=1;fontColor=#B3B3B3;strokeColor=#0D0D0D;strokeWidth=0.5;" parent="1" vertex="1">
          <mxGeometry x="517" y="120" width="10" height="10" as="geometry" />
        </mxCell>
        <mxCell id="1Dst-Pp7yCYSwZfz3Zx6-64" value="" style="endArrow=none;dashed=1;html=1;dashPattern=1 3;strokeWidth=1;rounded=0;exitX=1;exitY=0.5;exitDx=0;exitDy=0;entryX=0;entryY=0.5;entryDx=0;entryDy=0;fontColor=#B3B3B3;strokeColor=#0D0D0D;" parent="1" edge="1">
          <mxGeometry width="50" height="50" relative="1" as="geometry">
            <mxPoint x="447" y="125" as="sourcePoint" />
            <mxPoint x="477" y="125" as="targetPoint" />
          </mxGeometry>
        </mxCell>
        <mxCell id="1Dst-Pp7yCYSwZfz3Zx6-65" value="m" style="rounded=0;whiteSpace=wrap;html=1;fontColor=#0D0D0D;strokeColor=#0D0D0D;strokeWidth=0.5;fontSize=11;fontFamily=Computer Modern;" parent="1" vertex="1">
          <mxGeometry x="245" y="130" width="10" height="10" as="geometry" />
        </mxCell>
        <mxCell id="1Dst-Pp7yCYSwZfz3Zx6-66" value="y" style="rounded=0;whiteSpace=wrap;html=1;fontColor=#0D0D0D;strokeColor=#0D0D0D;strokeWidth=0.5;fontSize=11;fontFamily=Computer Modern;" parent="1" vertex="1">
          <mxGeometry x="255" y="130" width="10" height="10" as="geometry" />
        </mxCell>
        <mxCell id="1Dst-Pp7yCYSwZfz3Zx6-67" value="&lt;font style=&quot;font-size: 11px;&quot;&gt;V&lt;/font&gt;" style="rounded=0;whiteSpace=wrap;html=1;fontColor=#0D0D0D;strokeColor=#0D0D0D;strokeWidth=0.5;fontSize=11;fontFamily=Computer Modern;" parent="1" vertex="1">
          <mxGeometry x="265" y="130" width="10" height="10" as="geometry" />
        </mxCell>
        <mxCell id="1Dst-Pp7yCYSwZfz3Zx6-68" value="a" style="rounded=0;whiteSpace=wrap;html=1;fontColor=#0D0D0D;strokeColor=#0D0D0D;strokeWidth=0.5;fontSize=11;fontFamily=Computer Modern;" parent="1" vertex="1">
          <mxGeometry x="275" y="130" width="10" height="10" as="geometry" />
        </mxCell>
        <mxCell id="1Dst-Pp7yCYSwZfz3Zx6-69" value="r" style="rounded=0;whiteSpace=wrap;html=1;fontColor=#0D0D0D;strokeColor=#0D0D0D;strokeWidth=0.5;fontSize=11;fontFamily=Computer Modern;" parent="1" vertex="1">
          <mxGeometry x="285" y="130" width="10" height="10" as="geometry" />
        </mxCell>
        <mxCell id="1Dst-Pp7yCYSwZfz3Zx6-70" value="" style="rounded=0;whiteSpace=wrap;html=1;fontColor=#0D0D0D;strokeColor=#0D0D0D;strokeWidth=0.5;fontSize=11;fontFamily=Computer Modern;" parent="1" vertex="1">
          <mxGeometry x="295" y="130" width="10" height="10" as="geometry" />
        </mxCell>
        <mxCell id="1Dst-Pp7yCYSwZfz3Zx6-71" value="=" style="rounded=0;whiteSpace=wrap;html=1;fontColor=#0D0D0D;strokeColor=#0D0D0D;strokeWidth=0.5;fontFamily=Computer Modern;fontSize=11;" parent="1" vertex="1">
          <mxGeometry x="305" y="130" width="10" height="10" as="geometry" />
        </mxCell>
        <mxCell id="1Dst-Pp7yCYSwZfz3Zx6-72" value="" style="rounded=0;whiteSpace=wrap;html=1;fontColor=#0D0D0D;strokeColor=#0D0D0D;strokeWidth=0.5;fontSize=11;fontFamily=Computer Modern;" parent="1" vertex="1">
          <mxGeometry x="315" y="130" width="10" height="10" as="geometry" />
        </mxCell>
        <mxCell id="1Dst-Pp7yCYSwZfz3Zx6-73" value="1" style="rounded=0;whiteSpace=wrap;html=1;fontColor=#0D0D0D;strokeColor=#0D0D0D;strokeWidth=0.5;fontFamily=Computer Modern;fontSize=11;" parent="1" vertex="1">
          <mxGeometry x="325" y="130" width="10" height="10" as="geometry" />
        </mxCell>
        <mxCell id="1Dst-Pp7yCYSwZfz3Zx6-74" value="5" style="rounded=0;whiteSpace=wrap;html=1;fontColor=#0D0D0D;strokeColor=#0D0D0D;strokeWidth=0.5;fontSize=11;fontFamily=Computer Modern;" parent="1" vertex="1">
          <mxGeometry x="335" y="130" width="10" height="10" as="geometry" />
        </mxCell>
        <mxCell id="1Dst-Pp7yCYSwZfz3Zx6-75" value="5" style="rounded=0;whiteSpace=wrap;html=1;fontColor=#0D0D0D;strokeColor=#0D0D0D;strokeWidth=0.5;fontSize=11;fontFamily=Computer Modern;" parent="1" vertex="1">
          <mxGeometry x="345" y="130" width="10" height="10" as="geometry" />
        </mxCell>
        <mxCell id="1Dst-Pp7yCYSwZfz3Zx6-76" value="" style="rounded=0;whiteSpace=wrap;html=1;fontColor=#0D0D0D;strokeColor=#0D0D0D;strokeWidth=0.5;fontSize=11;fontFamily=Computer Modern;" parent="1" vertex="1">
          <mxGeometry x="355" y="130" width="10" height="10" as="geometry" />
        </mxCell>
        <mxCell id="1Dst-Pp7yCYSwZfz3Zx6-77" value="" style="rounded=0;whiteSpace=wrap;html=1;fontColor=#B3B3B3;strokeColor=#0D0D0D;strokeWidth=0.5;" parent="1" vertex="1">
          <mxGeometry x="365" y="130" width="10" height="10" as="geometry" />
        </mxCell>
        <mxCell id="1Dst-Pp7yCYSwZfz3Zx6-78" value="" style="rounded=0;whiteSpace=wrap;html=1;fontColor=#B3B3B3;strokeColor=#0D0D0D;strokeWidth=0.5;" parent="1" vertex="1">
          <mxGeometry x="375" y="130" width="10" height="10" as="geometry" />
        </mxCell>
        <mxCell id="1Dst-Pp7yCYSwZfz3Zx6-79" value="" style="rounded=0;whiteSpace=wrap;html=1;fontColor=#B3B3B3;strokeColor=#0D0D0D;strokeWidth=0.5;" parent="1" vertex="1">
          <mxGeometry x="385" y="130" width="10" height="10" as="geometry" />
        </mxCell>
        <mxCell id="1Dst-Pp7yCYSwZfz3Zx6-80" value="" style="rounded=0;whiteSpace=wrap;html=1;fontColor=#B3B3B3;strokeColor=#0D0D0D;strokeWidth=0.5;" parent="1" vertex="1">
          <mxGeometry x="395" y="130" width="10" height="10" as="geometry" />
        </mxCell>
        <mxCell id="1Dst-Pp7yCYSwZfz3Zx6-81" value="" style="rounded=0;whiteSpace=wrap;html=1;fontColor=#B3B3B3;strokeColor=#0D0D0D;strokeWidth=0.5;" parent="1" vertex="1">
          <mxGeometry x="405" y="130" width="10" height="10" as="geometry" />
        </mxCell>
        <mxCell id="1Dst-Pp7yCYSwZfz3Zx6-82" value="" style="rounded=0;whiteSpace=wrap;html=1;fontColor=#B3B3B3;strokeColor=#0D0D0D;strokeWidth=0.5;" parent="1" vertex="1">
          <mxGeometry x="415" y="130" width="10" height="10" as="geometry" />
        </mxCell>
        <mxCell id="1Dst-Pp7yCYSwZfz3Zx6-83" value="" style="rounded=0;whiteSpace=wrap;html=1;fontColor=#B3B3B3;strokeColor=#0D0D0D;strokeWidth=0.5;" parent="1" vertex="1">
          <mxGeometry x="425" y="130" width="10" height="10" as="geometry" />
        </mxCell>
        <mxCell id="1Dst-Pp7yCYSwZfz3Zx6-84" value="" style="rounded=0;whiteSpace=wrap;html=1;fontColor=#B3B3B3;strokeColor=#0D0D0D;strokeWidth=0.5;" parent="1" vertex="1">
          <mxGeometry x="435" y="130" width="10" height="10" as="geometry" />
        </mxCell>
        <mxCell id="1Dst-Pp7yCYSwZfz3Zx6-85" value="" style="rounded=0;whiteSpace=wrap;html=1;fontColor=#B3B3B3;strokeColor=#0D0D0D;strokeWidth=0.5;" parent="1" vertex="1">
          <mxGeometry x="477" y="130" width="10" height="10" as="geometry" />
        </mxCell>
        <mxCell id="1Dst-Pp7yCYSwZfz3Zx6-86" value="" style="rounded=0;whiteSpace=wrap;html=1;fontColor=#B3B3B3;strokeColor=#0D0D0D;strokeWidth=0.5;" parent="1" vertex="1">
          <mxGeometry x="487" y="130" width="10" height="10" as="geometry" />
        </mxCell>
        <mxCell id="1Dst-Pp7yCYSwZfz3Zx6-87" value="" style="rounded=0;whiteSpace=wrap;html=1;fontColor=#B3B3B3;strokeColor=#0D0D0D;strokeWidth=0.5;" parent="1" vertex="1">
          <mxGeometry x="497" y="130" width="10" height="10" as="geometry" />
        </mxCell>
        <mxCell id="1Dst-Pp7yCYSwZfz3Zx6-88" value="" style="rounded=0;whiteSpace=wrap;html=1;fontColor=#B3B3B3;strokeColor=#0D0D0D;strokeWidth=0.5;" parent="1" vertex="1">
          <mxGeometry x="507" y="130" width="10" height="10" as="geometry" />
        </mxCell>
        <mxCell id="1Dst-Pp7yCYSwZfz3Zx6-89" value="" style="rounded=0;whiteSpace=wrap;html=1;fontColor=#B3B3B3;strokeColor=#0D0D0D;strokeWidth=0.5;" parent="1" vertex="1">
          <mxGeometry x="517" y="130" width="10" height="10" as="geometry" />
        </mxCell>
        <mxCell id="1Dst-Pp7yCYSwZfz3Zx6-90" value="" style="endArrow=none;dashed=1;html=1;dashPattern=1 3;strokeWidth=1;rounded=0;exitX=1;exitY=0.5;exitDx=0;exitDy=0;entryX=0;entryY=0.5;entryDx=0;entryDy=0;fontColor=#B3B3B3;strokeColor=#0D0D0D;" parent="1" edge="1">
          <mxGeometry width="50" height="50" relative="1" as="geometry">
            <mxPoint x="447" y="135" as="sourcePoint" />
            <mxPoint x="477" y="135" as="targetPoint" />
          </mxGeometry>
        </mxCell>
        <mxCell id="1Dst-Pp7yCYSwZfz3Zx6-91" value="f" style="rounded=0;whiteSpace=wrap;html=1;fontColor=#0D0D0D;strokeColor=#0D0D0D;strokeWidth=0.5;fontSize=11;fontFamily=Computer Modern;" parent="1" vertex="1">
          <mxGeometry x="245" y="140" width="10" height="10" as="geometry" />
        </mxCell>
        <mxCell id="1Dst-Pp7yCYSwZfz3Zx6-92" value="l" style="rounded=0;whiteSpace=wrap;html=1;fontColor=#0D0D0D;strokeColor=#0D0D0D;strokeWidth=0.5;fontSize=11;fontFamily=Computer Modern;" parent="1" vertex="1">
          <mxGeometry x="255" y="140" width="10" height="10" as="geometry" />
        </mxCell>
        <mxCell id="1Dst-Pp7yCYSwZfz3Zx6-93" value="a" style="rounded=0;whiteSpace=wrap;html=1;fontColor=#0D0D0D;strokeColor=#0D0D0D;strokeWidth=0.5;fontSize=11;fontFamily=Computer Modern;" parent="1" vertex="1">
          <mxGeometry x="265" y="140" width="10" height="10" as="geometry" />
        </mxCell>
        <mxCell id="1Dst-Pp7yCYSwZfz3Zx6-94" value="g" style="rounded=0;whiteSpace=wrap;html=1;fontColor=#0D0D0D;strokeColor=#0D0D0D;strokeWidth=0.5;fontSize=11;fontFamily=Computer Modern;" parent="1" vertex="1">
          <mxGeometry x="275" y="140" width="10" height="10" as="geometry" />
        </mxCell>
        <mxCell id="1Dst-Pp7yCYSwZfz3Zx6-95" value="" style="rounded=0;whiteSpace=wrap;html=1;fontColor=#B3B3B3;strokeColor=#0D0D0D;strokeWidth=0.5;" parent="1" vertex="1">
          <mxGeometry x="285" y="140" width="10" height="10" as="geometry" />
        </mxCell>
        <mxCell id="1Dst-Pp7yCYSwZfz3Zx6-96" value="=" style="rounded=0;whiteSpace=wrap;html=1;fontColor=#0D0D0D;strokeColor=#0D0D0D;strokeWidth=0.5;fontSize=11;fontFamily=Computer Modern;" parent="1" vertex="1">
          <mxGeometry x="295" y="140" width="10" height="10" as="geometry" />
        </mxCell>
        <mxCell id="1Dst-Pp7yCYSwZfz3Zx6-97" value="" style="rounded=0;whiteSpace=wrap;html=1;fontColor=#B3B3B3;strokeColor=#0D0D0D;strokeWidth=0.5;" parent="1" vertex="1">
          <mxGeometry x="305" y="140" width="10" height="10" as="geometry" />
        </mxCell>
        <mxCell id="1Dst-Pp7yCYSwZfz3Zx6-98" value="f" style="rounded=0;whiteSpace=wrap;html=1;fontColor=#0D0D0D;strokeColor=#0D0D0D;strokeWidth=0.5;fontSize=11;fontFamily=Computer Modern;" parent="1" vertex="1">
          <mxGeometry x="315" y="140" width="10" height="10" as="geometry" />
        </mxCell>
        <mxCell id="1Dst-Pp7yCYSwZfz3Zx6-99" value="a" style="rounded=0;whiteSpace=wrap;html=1;fontColor=#0D0D0D;strokeColor=#0D0D0D;strokeWidth=0.5;fontSize=11;fontFamily=Computer Modern;" parent="1" vertex="1">
          <mxGeometry x="325" y="140" width="10" height="10" as="geometry" />
        </mxCell>
        <mxCell id="1Dst-Pp7yCYSwZfz3Zx6-100" value="l" style="rounded=0;whiteSpace=wrap;html=1;fontColor=#0D0D0D;strokeColor=#0D0D0D;strokeWidth=0.5;fontSize=11;fontFamily=Computer Modern;" parent="1" vertex="1">
          <mxGeometry x="335" y="140" width="10" height="10" as="geometry" />
        </mxCell>
        <mxCell id="1Dst-Pp7yCYSwZfz3Zx6-101" value="s" style="rounded=0;whiteSpace=wrap;html=1;fontColor=#0D0D0D;strokeColor=#0D0D0D;strokeWidth=0.5;fontSize=11;fontFamily=Computer Modern;" parent="1" vertex="1">
          <mxGeometry x="345" y="140" width="10" height="10" as="geometry" />
        </mxCell>
        <mxCell id="1Dst-Pp7yCYSwZfz3Zx6-102" value="e" style="rounded=0;whiteSpace=wrap;html=1;fontColor=#0D0D0D;strokeColor=#0D0D0D;strokeWidth=0.5;fontSize=11;fontFamily=Computer Modern;" parent="1" vertex="1">
          <mxGeometry x="355" y="140" width="10" height="10" as="geometry" />
        </mxCell>
        <mxCell id="1Dst-Pp7yCYSwZfz3Zx6-103" value="" style="rounded=0;whiteSpace=wrap;html=1;fontColor=#B3B3B3;strokeColor=#0D0D0D;strokeWidth=0.5;" parent="1" vertex="1">
          <mxGeometry x="365" y="140" width="10" height="10" as="geometry" />
        </mxCell>
        <mxCell id="1Dst-Pp7yCYSwZfz3Zx6-104" value="" style="rounded=0;whiteSpace=wrap;html=1;fontColor=#B3B3B3;strokeColor=#0D0D0D;strokeWidth=0.5;" parent="1" vertex="1">
          <mxGeometry x="375" y="140" width="10" height="10" as="geometry" />
        </mxCell>
        <mxCell id="1Dst-Pp7yCYSwZfz3Zx6-105" value="" style="rounded=0;whiteSpace=wrap;html=1;fontColor=#B3B3B3;strokeColor=#0D0D0D;strokeWidth=0.5;" parent="1" vertex="1">
          <mxGeometry x="385" y="140" width="10" height="10" as="geometry" />
        </mxCell>
        <mxCell id="1Dst-Pp7yCYSwZfz3Zx6-106" value="" style="rounded=0;whiteSpace=wrap;html=1;fontColor=#B3B3B3;strokeColor=#0D0D0D;strokeWidth=0.5;" parent="1" vertex="1">
          <mxGeometry x="395" y="140" width="10" height="10" as="geometry" />
        </mxCell>
        <mxCell id="1Dst-Pp7yCYSwZfz3Zx6-107" value="" style="rounded=0;whiteSpace=wrap;html=1;fontColor=#B3B3B3;strokeColor=#0D0D0D;strokeWidth=0.5;" parent="1" vertex="1">
          <mxGeometry x="405" y="140" width="10" height="10" as="geometry" />
        </mxCell>
        <mxCell id="1Dst-Pp7yCYSwZfz3Zx6-108" value="" style="rounded=0;whiteSpace=wrap;html=1;fontColor=#B3B3B3;strokeColor=#0D0D0D;strokeWidth=0.5;" parent="1" vertex="1">
          <mxGeometry x="415" y="140" width="10" height="10" as="geometry" />
        </mxCell>
        <mxCell id="1Dst-Pp7yCYSwZfz3Zx6-109" value="" style="rounded=0;whiteSpace=wrap;html=1;fontColor=#B3B3B3;strokeColor=#0D0D0D;strokeWidth=0.5;" parent="1" vertex="1">
          <mxGeometry x="425" y="140" width="10" height="10" as="geometry" />
        </mxCell>
        <mxCell id="1Dst-Pp7yCYSwZfz3Zx6-110" value="" style="rounded=0;whiteSpace=wrap;html=1;fontColor=#B3B3B3;strokeColor=#0D0D0D;strokeWidth=0.5;" parent="1" vertex="1">
          <mxGeometry x="435" y="140" width="10" height="10" as="geometry" />
        </mxCell>
        <mxCell id="1Dst-Pp7yCYSwZfz3Zx6-111" value="" style="rounded=0;whiteSpace=wrap;html=1;fontColor=#B3B3B3;strokeColor=#0D0D0D;strokeWidth=0.5;" parent="1" vertex="1">
          <mxGeometry x="477" y="140" width="10" height="10" as="geometry" />
        </mxCell>
        <mxCell id="1Dst-Pp7yCYSwZfz3Zx6-112" value="" style="rounded=0;whiteSpace=wrap;html=1;fontColor=#B3B3B3;strokeColor=#0D0D0D;strokeWidth=0.5;" parent="1" vertex="1">
          <mxGeometry x="487" y="140" width="10" height="10" as="geometry" />
        </mxCell>
        <mxCell id="1Dst-Pp7yCYSwZfz3Zx6-113" value="" style="rounded=0;whiteSpace=wrap;html=1;fontColor=#B3B3B3;strokeColor=#0D0D0D;strokeWidth=0.5;" parent="1" vertex="1">
          <mxGeometry x="497" y="140" width="10" height="10" as="geometry" />
        </mxCell>
        <mxCell id="1Dst-Pp7yCYSwZfz3Zx6-114" value="" style="rounded=0;whiteSpace=wrap;html=1;fontColor=#B3B3B3;strokeColor=#0D0D0D;strokeWidth=0.5;" parent="1" vertex="1">
          <mxGeometry x="507" y="140" width="10" height="10" as="geometry" />
        </mxCell>
        <mxCell id="1Dst-Pp7yCYSwZfz3Zx6-115" value="" style="rounded=0;whiteSpace=wrap;html=1;fontColor=#B3B3B3;strokeColor=#0D0D0D;strokeWidth=0.5;" parent="1" vertex="1">
          <mxGeometry x="517" y="140" width="10" height="10" as="geometry" />
        </mxCell>
        <mxCell id="1Dst-Pp7yCYSwZfz3Zx6-116" value="" style="endArrow=none;dashed=1;html=1;dashPattern=1 3;strokeWidth=1;rounded=0;exitX=1;exitY=0.5;exitDx=0;exitDy=0;entryX=0;entryY=0.5;entryDx=0;entryDy=0;fontColor=#B3B3B3;strokeColor=#0D0D0D;" parent="1" edge="1">
          <mxGeometry width="50" height="50" relative="1" as="geometry">
            <mxPoint x="447" y="145" as="sourcePoint" />
            <mxPoint x="477" y="145" as="targetPoint" />
          </mxGeometry>
        </mxCell>
        <mxCell id="1Dst-Pp7yCYSwZfz3Zx6-117" value="" style="rounded=0;whiteSpace=wrap;html=1;fontColor=#B3B3B3;strokeColor=#0D0D0D;strokeWidth=0.5;" parent="1" vertex="1">
          <mxGeometry x="245" y="210" width="10" height="10" as="geometry" />
        </mxCell>
        <mxCell id="1Dst-Pp7yCYSwZfz3Zx6-118" value="" style="rounded=0;whiteSpace=wrap;html=1;fontColor=#B3B3B3;strokeColor=#0D0D0D;strokeWidth=0.5;" parent="1" vertex="1">
          <mxGeometry x="255" y="210" width="10" height="10" as="geometry" />
        </mxCell>
        <mxCell id="1Dst-Pp7yCYSwZfz3Zx6-119" value="" style="rounded=0;whiteSpace=wrap;html=1;fontColor=#B3B3B3;strokeColor=#0D0D0D;strokeWidth=0.5;" parent="1" vertex="1">
          <mxGeometry x="265" y="210" width="10" height="10" as="geometry" />
        </mxCell>
        <mxCell id="1Dst-Pp7yCYSwZfz3Zx6-120" value="" style="rounded=0;whiteSpace=wrap;html=1;fontColor=#B3B3B3;strokeColor=#0D0D0D;strokeWidth=0.5;" parent="1" vertex="1">
          <mxGeometry x="275" y="210" width="10" height="10" as="geometry" />
        </mxCell>
        <mxCell id="1Dst-Pp7yCYSwZfz3Zx6-121" value="" style="rounded=0;whiteSpace=wrap;html=1;fontColor=#B3B3B3;strokeColor=#0D0D0D;strokeWidth=0.5;" parent="1" vertex="1">
          <mxGeometry x="285" y="210" width="10" height="10" as="geometry" />
        </mxCell>
        <mxCell id="1Dst-Pp7yCYSwZfz3Zx6-122" value="" style="rounded=0;whiteSpace=wrap;html=1;fontColor=#B3B3B3;strokeColor=#0D0D0D;strokeWidth=0.5;" parent="1" vertex="1">
          <mxGeometry x="295" y="210" width="10" height="10" as="geometry" />
        </mxCell>
        <mxCell id="1Dst-Pp7yCYSwZfz3Zx6-123" value="" style="rounded=0;whiteSpace=wrap;html=1;fontColor=#B3B3B3;strokeColor=#0D0D0D;strokeWidth=0.5;" parent="1" vertex="1">
          <mxGeometry x="305" y="210" width="10" height="10" as="geometry" />
        </mxCell>
        <mxCell id="1Dst-Pp7yCYSwZfz3Zx6-124" value="" style="rounded=0;whiteSpace=wrap;html=1;fontColor=#B3B3B3;strokeColor=#0D0D0D;strokeWidth=0.5;" parent="1" vertex="1">
          <mxGeometry x="315" y="210" width="10" height="10" as="geometry" />
        </mxCell>
        <mxCell id="1Dst-Pp7yCYSwZfz3Zx6-125" value="" style="rounded=0;whiteSpace=wrap;html=1;fontColor=#B3B3B3;strokeColor=#0D0D0D;strokeWidth=0.5;" parent="1" vertex="1">
          <mxGeometry x="325" y="210" width="10" height="10" as="geometry" />
        </mxCell>
        <mxCell id="1Dst-Pp7yCYSwZfz3Zx6-126" value="" style="rounded=0;whiteSpace=wrap;html=1;fontColor=#B3B3B3;strokeColor=#0D0D0D;strokeWidth=0.5;" parent="1" vertex="1">
          <mxGeometry x="335" y="210" width="10" height="10" as="geometry" />
        </mxCell>
        <mxCell id="1Dst-Pp7yCYSwZfz3Zx6-127" value="" style="rounded=0;whiteSpace=wrap;html=1;fontColor=#B3B3B3;strokeColor=#0D0D0D;strokeWidth=0.5;" parent="1" vertex="1">
          <mxGeometry x="345" y="210" width="10" height="10" as="geometry" />
        </mxCell>
        <mxCell id="1Dst-Pp7yCYSwZfz3Zx6-128" value="" style="rounded=0;whiteSpace=wrap;html=1;fontColor=#B3B3B3;strokeColor=#0D0D0D;strokeWidth=0.5;" parent="1" vertex="1">
          <mxGeometry x="355" y="210" width="10" height="10" as="geometry" />
        </mxCell>
        <mxCell id="1Dst-Pp7yCYSwZfz3Zx6-129" value="" style="rounded=0;whiteSpace=wrap;html=1;fontColor=#B3B3B3;strokeColor=#0D0D0D;strokeWidth=0.5;" parent="1" vertex="1">
          <mxGeometry x="365" y="210" width="10" height="10" as="geometry" />
        </mxCell>
        <mxCell id="1Dst-Pp7yCYSwZfz3Zx6-130" value="" style="rounded=0;whiteSpace=wrap;html=1;fontColor=#B3B3B3;strokeColor=#0D0D0D;strokeWidth=0.5;" parent="1" vertex="1">
          <mxGeometry x="375" y="210" width="10" height="10" as="geometry" />
        </mxCell>
        <mxCell id="1Dst-Pp7yCYSwZfz3Zx6-131" value="" style="rounded=0;whiteSpace=wrap;html=1;fontColor=#B3B3B3;strokeColor=#0D0D0D;strokeWidth=0.5;" parent="1" vertex="1">
          <mxGeometry x="385" y="210" width="10" height="10" as="geometry" />
        </mxCell>
        <mxCell id="1Dst-Pp7yCYSwZfz3Zx6-132" value="" style="rounded=0;whiteSpace=wrap;html=1;fontColor=#B3B3B3;strokeColor=#0D0D0D;strokeWidth=0.5;" parent="1" vertex="1">
          <mxGeometry x="395" y="210" width="10" height="10" as="geometry" />
        </mxCell>
        <mxCell id="1Dst-Pp7yCYSwZfz3Zx6-133" value="" style="rounded=0;whiteSpace=wrap;html=1;fontColor=#B3B3B3;strokeColor=#0D0D0D;strokeWidth=0.5;" parent="1" vertex="1">
          <mxGeometry x="405" y="210" width="10" height="10" as="geometry" />
        </mxCell>
        <mxCell id="1Dst-Pp7yCYSwZfz3Zx6-134" value="" style="rounded=0;whiteSpace=wrap;html=1;fontColor=#B3B3B3;strokeColor=#0D0D0D;strokeWidth=0.5;" parent="1" vertex="1">
          <mxGeometry x="415" y="210" width="10" height="10" as="geometry" />
        </mxCell>
        <mxCell id="1Dst-Pp7yCYSwZfz3Zx6-135" value="" style="rounded=0;whiteSpace=wrap;html=1;fontColor=#B3B3B3;strokeColor=#0D0D0D;strokeWidth=0.5;" parent="1" vertex="1">
          <mxGeometry x="425" y="210" width="10" height="10" as="geometry" />
        </mxCell>
        <mxCell id="1Dst-Pp7yCYSwZfz3Zx6-136" value="" style="rounded=0;whiteSpace=wrap;html=1;fontColor=#B3B3B3;strokeColor=#0D0D0D;strokeWidth=0.5;" parent="1" vertex="1">
          <mxGeometry x="435" y="210" width="10" height="10" as="geometry" />
        </mxCell>
        <mxCell id="1Dst-Pp7yCYSwZfz3Zx6-137" value="" style="rounded=0;whiteSpace=wrap;html=1;fontColor=#B3B3B3;strokeColor=#0D0D0D;strokeWidth=0.5;" parent="1" vertex="1">
          <mxGeometry x="477" y="210" width="10" height="10" as="geometry" />
        </mxCell>
        <mxCell id="1Dst-Pp7yCYSwZfz3Zx6-138" value="" style="rounded=0;whiteSpace=wrap;html=1;fontColor=#B3B3B3;strokeColor=#0D0D0D;strokeWidth=0.5;" parent="1" vertex="1">
          <mxGeometry x="487" y="210" width="10" height="10" as="geometry" />
        </mxCell>
        <mxCell id="1Dst-Pp7yCYSwZfz3Zx6-139" value="" style="rounded=0;whiteSpace=wrap;html=1;fontColor=#B3B3B3;strokeColor=#0D0D0D;strokeWidth=0.5;" parent="1" vertex="1">
          <mxGeometry x="497" y="210" width="10" height="10" as="geometry" />
        </mxCell>
        <mxCell id="1Dst-Pp7yCYSwZfz3Zx6-140" value="" style="rounded=0;whiteSpace=wrap;html=1;fontColor=#B3B3B3;strokeColor=#0D0D0D;strokeWidth=0.5;" parent="1" vertex="1">
          <mxGeometry x="507" y="210" width="10" height="10" as="geometry" />
        </mxCell>
        <mxCell id="1Dst-Pp7yCYSwZfz3Zx6-141" value="" style="rounded=0;whiteSpace=wrap;html=1;fontColor=#B3B3B3;strokeColor=#0D0D0D;strokeWidth=0.5;" parent="1" vertex="1">
          <mxGeometry x="517" y="210" width="10" height="10" as="geometry" />
        </mxCell>
        <mxCell id="1Dst-Pp7yCYSwZfz3Zx6-142" value="" style="endArrow=none;dashed=1;html=1;dashPattern=1 3;strokeWidth=1;rounded=0;exitX=1;exitY=0.5;exitDx=0;exitDy=0;entryX=0;entryY=0.5;entryDx=0;entryDy=0;fontColor=#B3B3B3;strokeColor=#0D0D0D;" parent="1" edge="1">
          <mxGeometry width="50" height="50" relative="1" as="geometry">
            <mxPoint x="447" y="215" as="sourcePoint" />
            <mxPoint x="477" y="215" as="targetPoint" />
          </mxGeometry>
        </mxCell>
        <mxCell id="1Dst-Pp7yCYSwZfz3Zx6-143" value="" style="rounded=0;whiteSpace=wrap;html=1;fontColor=#B3B3B3;strokeColor=#0D0D0D;strokeWidth=0.5;" parent="1" vertex="1">
          <mxGeometry x="245" y="150" width="10" height="10" as="geometry" />
        </mxCell>
        <mxCell id="1Dst-Pp7yCYSwZfz3Zx6-144" value="" style="rounded=0;whiteSpace=wrap;html=1;fontColor=#B3B3B3;strokeColor=#0D0D0D;strokeWidth=0.5;" parent="1" vertex="1">
          <mxGeometry x="255" y="150" width="10" height="10" as="geometry" />
        </mxCell>
        <mxCell id="1Dst-Pp7yCYSwZfz3Zx6-145" value="" style="rounded=0;whiteSpace=wrap;html=1;fontColor=#B3B3B3;strokeColor=#0D0D0D;strokeWidth=0.5;" parent="1" vertex="1">
          <mxGeometry x="265" y="150" width="10" height="10" as="geometry" />
        </mxCell>
        <mxCell id="1Dst-Pp7yCYSwZfz3Zx6-146" value="" style="rounded=0;whiteSpace=wrap;html=1;fontColor=#B3B3B3;strokeColor=#0D0D0D;strokeWidth=0.5;" parent="1" vertex="1">
          <mxGeometry x="275" y="150" width="10" height="10" as="geometry" />
        </mxCell>
        <mxCell id="1Dst-Pp7yCYSwZfz3Zx6-147" value="" style="rounded=0;whiteSpace=wrap;html=1;fontColor=#B3B3B3;strokeColor=#0D0D0D;strokeWidth=0.5;" parent="1" vertex="1">
          <mxGeometry x="285" y="150" width="10" height="10" as="geometry" />
        </mxCell>
        <mxCell id="1Dst-Pp7yCYSwZfz3Zx6-148" value="" style="rounded=0;whiteSpace=wrap;html=1;fontColor=#B3B3B3;strokeColor=#0D0D0D;strokeWidth=0.5;" parent="1" vertex="1">
          <mxGeometry x="295" y="150" width="10" height="10" as="geometry" />
        </mxCell>
        <mxCell id="1Dst-Pp7yCYSwZfz3Zx6-149" value="" style="rounded=0;whiteSpace=wrap;html=1;fontColor=#B3B3B3;strokeColor=#0D0D0D;strokeWidth=0.5;" parent="1" vertex="1">
          <mxGeometry x="305" y="150" width="10" height="10" as="geometry" />
        </mxCell>
        <mxCell id="1Dst-Pp7yCYSwZfz3Zx6-150" value="" style="rounded=0;whiteSpace=wrap;html=1;fontColor=#B3B3B3;strokeColor=#0D0D0D;strokeWidth=0.5;" parent="1" vertex="1">
          <mxGeometry x="315" y="150" width="10" height="10" as="geometry" />
        </mxCell>
        <mxCell id="1Dst-Pp7yCYSwZfz3Zx6-151" value="" style="rounded=0;whiteSpace=wrap;html=1;fontColor=#B3B3B3;strokeColor=#0D0D0D;strokeWidth=0.5;" parent="1" vertex="1">
          <mxGeometry x="325" y="150" width="10" height="10" as="geometry" />
        </mxCell>
        <mxCell id="1Dst-Pp7yCYSwZfz3Zx6-152" value="" style="rounded=0;whiteSpace=wrap;html=1;fontColor=#B3B3B3;strokeColor=#0D0D0D;strokeWidth=0.5;" parent="1" vertex="1">
          <mxGeometry x="335" y="150" width="10" height="10" as="geometry" />
        </mxCell>
        <mxCell id="1Dst-Pp7yCYSwZfz3Zx6-153" value="" style="rounded=0;whiteSpace=wrap;html=1;fontColor=#B3B3B3;strokeColor=#0D0D0D;strokeWidth=0.5;" parent="1" vertex="1">
          <mxGeometry x="345" y="150" width="10" height="10" as="geometry" />
        </mxCell>
        <mxCell id="1Dst-Pp7yCYSwZfz3Zx6-154" value="" style="rounded=0;whiteSpace=wrap;html=1;fontColor=#B3B3B3;strokeColor=#0D0D0D;strokeWidth=0.5;" parent="1" vertex="1">
          <mxGeometry x="355" y="150" width="10" height="10" as="geometry" />
        </mxCell>
        <mxCell id="1Dst-Pp7yCYSwZfz3Zx6-155" value="" style="rounded=0;whiteSpace=wrap;html=1;fontColor=#B3B3B3;strokeColor=#0D0D0D;strokeWidth=0.5;" parent="1" vertex="1">
          <mxGeometry x="365" y="150" width="10" height="10" as="geometry" />
        </mxCell>
        <mxCell id="1Dst-Pp7yCYSwZfz3Zx6-156" value="" style="rounded=0;whiteSpace=wrap;html=1;fontColor=#B3B3B3;strokeColor=#0D0D0D;strokeWidth=0.5;" parent="1" vertex="1">
          <mxGeometry x="375" y="150" width="10" height="10" as="geometry" />
        </mxCell>
        <mxCell id="1Dst-Pp7yCYSwZfz3Zx6-157" value="" style="rounded=0;whiteSpace=wrap;html=1;fontColor=#B3B3B3;strokeColor=#0D0D0D;strokeWidth=0.5;" parent="1" vertex="1">
          <mxGeometry x="385" y="150" width="10" height="10" as="geometry" />
        </mxCell>
        <mxCell id="1Dst-Pp7yCYSwZfz3Zx6-158" value="" style="rounded=0;whiteSpace=wrap;html=1;fontColor=#B3B3B3;strokeColor=#0D0D0D;strokeWidth=0.5;" parent="1" vertex="1">
          <mxGeometry x="395" y="150" width="10" height="10" as="geometry" />
        </mxCell>
        <mxCell id="1Dst-Pp7yCYSwZfz3Zx6-159" value="" style="rounded=0;whiteSpace=wrap;html=1;fontColor=#B3B3B3;strokeColor=#0D0D0D;strokeWidth=0.5;" parent="1" vertex="1">
          <mxGeometry x="405" y="150" width="10" height="10" as="geometry" />
        </mxCell>
        <mxCell id="1Dst-Pp7yCYSwZfz3Zx6-160" value="" style="rounded=0;whiteSpace=wrap;html=1;fontColor=#B3B3B3;strokeColor=#0D0D0D;strokeWidth=0.5;" parent="1" vertex="1">
          <mxGeometry x="415" y="150" width="10" height="10" as="geometry" />
        </mxCell>
        <mxCell id="1Dst-Pp7yCYSwZfz3Zx6-161" value="" style="rounded=0;whiteSpace=wrap;html=1;fontColor=#B3B3B3;strokeColor=#0D0D0D;strokeWidth=0.5;" parent="1" vertex="1">
          <mxGeometry x="425" y="150" width="10" height="10" as="geometry" />
        </mxCell>
        <mxCell id="1Dst-Pp7yCYSwZfz3Zx6-162" value="" style="rounded=0;whiteSpace=wrap;html=1;fontColor=#B3B3B3;strokeColor=#0D0D0D;strokeWidth=0.5;" parent="1" vertex="1">
          <mxGeometry x="435" y="150" width="10" height="10" as="geometry" />
        </mxCell>
        <mxCell id="1Dst-Pp7yCYSwZfz3Zx6-163" value="" style="rounded=0;whiteSpace=wrap;html=1;fontColor=#B3B3B3;strokeColor=#0D0D0D;strokeWidth=0.5;" parent="1" vertex="1">
          <mxGeometry x="477" y="150" width="10" height="10" as="geometry" />
        </mxCell>
        <mxCell id="1Dst-Pp7yCYSwZfz3Zx6-164" value="" style="rounded=0;whiteSpace=wrap;html=1;fontColor=#B3B3B3;strokeColor=#0D0D0D;strokeWidth=0.5;" parent="1" vertex="1">
          <mxGeometry x="487" y="150" width="10" height="10" as="geometry" />
        </mxCell>
        <mxCell id="1Dst-Pp7yCYSwZfz3Zx6-165" value="" style="rounded=0;whiteSpace=wrap;html=1;fontColor=#B3B3B3;strokeColor=#0D0D0D;strokeWidth=0.5;" parent="1" vertex="1">
          <mxGeometry x="497" y="150" width="10" height="10" as="geometry" />
        </mxCell>
        <mxCell id="1Dst-Pp7yCYSwZfz3Zx6-166" value="" style="rounded=0;whiteSpace=wrap;html=1;fontColor=#B3B3B3;strokeColor=#0D0D0D;strokeWidth=0.5;" parent="1" vertex="1">
          <mxGeometry x="507" y="150" width="10" height="10" as="geometry" />
        </mxCell>
        <mxCell id="1Dst-Pp7yCYSwZfz3Zx6-167" value="" style="rounded=0;whiteSpace=wrap;html=1;fontColor=#B3B3B3;strokeColor=#0D0D0D;strokeWidth=0.5;" parent="1" vertex="1">
          <mxGeometry x="517" y="150" width="10" height="10" as="geometry" />
        </mxCell>
        <mxCell id="1Dst-Pp7yCYSwZfz3Zx6-168" value="" style="endArrow=none;dashed=1;html=1;dashPattern=1 3;strokeWidth=1;rounded=0;exitX=1;exitY=0.5;exitDx=0;exitDy=0;entryX=0;entryY=0.5;entryDx=0;entryDy=0;fontColor=#B3B3B3;strokeColor=#0D0D0D;" parent="1" edge="1">
          <mxGeometry width="50" height="50" relative="1" as="geometry">
            <mxPoint x="447" y="155" as="sourcePoint" />
            <mxPoint x="477" y="155" as="targetPoint" />
          </mxGeometry>
        </mxCell>
        <mxCell id="1Dst-Pp7yCYSwZfz3Zx6-169" value="" style="rounded=0;whiteSpace=wrap;html=1;fontColor=#B3B3B3;strokeColor=#0D0D0D;strokeWidth=0.5;" parent="1" vertex="1">
          <mxGeometry x="245" y="160" width="10" height="10" as="geometry" />
        </mxCell>
        <mxCell id="1Dst-Pp7yCYSwZfz3Zx6-170" value="" style="rounded=0;whiteSpace=wrap;html=1;fontColor=#B3B3B3;strokeColor=#0D0D0D;strokeWidth=0.5;" parent="1" vertex="1">
          <mxGeometry x="255" y="160" width="10" height="10" as="geometry" />
        </mxCell>
        <mxCell id="1Dst-Pp7yCYSwZfz3Zx6-171" value="" style="rounded=0;whiteSpace=wrap;html=1;fontColor=#B3B3B3;strokeColor=#0D0D0D;strokeWidth=0.5;" parent="1" vertex="1">
          <mxGeometry x="265" y="160" width="10" height="10" as="geometry" />
        </mxCell>
        <mxCell id="1Dst-Pp7yCYSwZfz3Zx6-172" value="" style="rounded=0;whiteSpace=wrap;html=1;fontColor=#B3B3B3;strokeColor=#0D0D0D;strokeWidth=0.5;" parent="1" vertex="1">
          <mxGeometry x="275" y="160" width="10" height="10" as="geometry" />
        </mxCell>
        <mxCell id="1Dst-Pp7yCYSwZfz3Zx6-173" value="" style="rounded=0;whiteSpace=wrap;html=1;fontColor=#B3B3B3;strokeColor=#0D0D0D;strokeWidth=0.5;" parent="1" vertex="1">
          <mxGeometry x="285" y="160" width="10" height="10" as="geometry" />
        </mxCell>
        <mxCell id="1Dst-Pp7yCYSwZfz3Zx6-174" value="" style="rounded=0;whiteSpace=wrap;html=1;fontColor=#B3B3B3;strokeColor=#0D0D0D;strokeWidth=0.5;" parent="1" vertex="1">
          <mxGeometry x="295" y="160" width="10" height="10" as="geometry" />
        </mxCell>
        <mxCell id="1Dst-Pp7yCYSwZfz3Zx6-175" value="" style="rounded=0;whiteSpace=wrap;html=1;fontColor=#B3B3B3;strokeColor=#0D0D0D;strokeWidth=0.5;" parent="1" vertex="1">
          <mxGeometry x="305" y="160" width="10" height="10" as="geometry" />
        </mxCell>
        <mxCell id="1Dst-Pp7yCYSwZfz3Zx6-176" value="" style="rounded=0;whiteSpace=wrap;html=1;fontColor=#B3B3B3;strokeColor=#0D0D0D;strokeWidth=0.5;" parent="1" vertex="1">
          <mxGeometry x="315" y="160" width="10" height="10" as="geometry" />
        </mxCell>
        <mxCell id="1Dst-Pp7yCYSwZfz3Zx6-177" value="" style="rounded=0;whiteSpace=wrap;html=1;fontColor=#B3B3B3;strokeColor=#0D0D0D;strokeWidth=0.5;" parent="1" vertex="1">
          <mxGeometry x="325" y="160" width="10" height="10" as="geometry" />
        </mxCell>
        <mxCell id="1Dst-Pp7yCYSwZfz3Zx6-178" value="" style="rounded=0;whiteSpace=wrap;html=1;fontColor=#B3B3B3;strokeColor=#0D0D0D;strokeWidth=0.5;" parent="1" vertex="1">
          <mxGeometry x="335" y="160" width="10" height="10" as="geometry" />
        </mxCell>
        <mxCell id="1Dst-Pp7yCYSwZfz3Zx6-179" value="" style="rounded=0;whiteSpace=wrap;html=1;fontColor=#B3B3B3;strokeColor=#0D0D0D;strokeWidth=0.5;" parent="1" vertex="1">
          <mxGeometry x="345" y="160" width="10" height="10" as="geometry" />
        </mxCell>
        <mxCell id="1Dst-Pp7yCYSwZfz3Zx6-180" value="" style="rounded=0;whiteSpace=wrap;html=1;fontColor=#B3B3B3;strokeColor=#0D0D0D;strokeWidth=0.5;" parent="1" vertex="1">
          <mxGeometry x="355" y="160" width="10" height="10" as="geometry" />
        </mxCell>
        <mxCell id="1Dst-Pp7yCYSwZfz3Zx6-181" value="" style="rounded=0;whiteSpace=wrap;html=1;fontColor=#B3B3B3;strokeColor=#0D0D0D;strokeWidth=0.5;" parent="1" vertex="1">
          <mxGeometry x="365" y="160" width="10" height="10" as="geometry" />
        </mxCell>
        <mxCell id="1Dst-Pp7yCYSwZfz3Zx6-182" value="" style="rounded=0;whiteSpace=wrap;html=1;fontColor=#B3B3B3;strokeColor=#0D0D0D;strokeWidth=0.5;" parent="1" vertex="1">
          <mxGeometry x="375" y="160" width="10" height="10" as="geometry" />
        </mxCell>
        <mxCell id="1Dst-Pp7yCYSwZfz3Zx6-183" value="" style="rounded=0;whiteSpace=wrap;html=1;fontColor=#B3B3B3;strokeColor=#0D0D0D;strokeWidth=0.5;" parent="1" vertex="1">
          <mxGeometry x="385" y="160" width="10" height="10" as="geometry" />
        </mxCell>
        <mxCell id="1Dst-Pp7yCYSwZfz3Zx6-184" value="" style="rounded=0;whiteSpace=wrap;html=1;fontColor=#B3B3B3;strokeColor=#0D0D0D;strokeWidth=0.5;" parent="1" vertex="1">
          <mxGeometry x="395" y="160" width="10" height="10" as="geometry" />
        </mxCell>
        <mxCell id="1Dst-Pp7yCYSwZfz3Zx6-185" value="" style="rounded=0;whiteSpace=wrap;html=1;fontColor=#B3B3B3;strokeColor=#0D0D0D;strokeWidth=0.5;" parent="1" vertex="1">
          <mxGeometry x="405" y="160" width="10" height="10" as="geometry" />
        </mxCell>
        <mxCell id="1Dst-Pp7yCYSwZfz3Zx6-186" value="" style="rounded=0;whiteSpace=wrap;html=1;fontColor=#B3B3B3;strokeColor=#0D0D0D;strokeWidth=0.5;" parent="1" vertex="1">
          <mxGeometry x="415" y="160" width="10" height="10" as="geometry" />
        </mxCell>
        <mxCell id="1Dst-Pp7yCYSwZfz3Zx6-187" value="" style="rounded=0;whiteSpace=wrap;html=1;fontColor=#B3B3B3;strokeColor=#0D0D0D;strokeWidth=0.5;" parent="1" vertex="1">
          <mxGeometry x="425" y="160" width="10" height="10" as="geometry" />
        </mxCell>
        <mxCell id="1Dst-Pp7yCYSwZfz3Zx6-188" value="" style="rounded=0;whiteSpace=wrap;html=1;fontColor=#B3B3B3;strokeColor=#0D0D0D;strokeWidth=0.5;" parent="1" vertex="1">
          <mxGeometry x="435" y="160" width="10" height="10" as="geometry" />
        </mxCell>
        <mxCell id="1Dst-Pp7yCYSwZfz3Zx6-189" value="" style="rounded=0;whiteSpace=wrap;html=1;fontColor=#B3B3B3;strokeColor=#0D0D0D;strokeWidth=0.5;" parent="1" vertex="1">
          <mxGeometry x="477" y="160" width="10" height="10" as="geometry" />
        </mxCell>
        <mxCell id="1Dst-Pp7yCYSwZfz3Zx6-190" value="" style="rounded=0;whiteSpace=wrap;html=1;fontColor=#B3B3B3;strokeColor=#0D0D0D;strokeWidth=0.5;" parent="1" vertex="1">
          <mxGeometry x="487" y="160" width="10" height="10" as="geometry" />
        </mxCell>
        <mxCell id="1Dst-Pp7yCYSwZfz3Zx6-191" value="" style="rounded=0;whiteSpace=wrap;html=1;fontColor=#B3B3B3;strokeColor=#0D0D0D;strokeWidth=0.5;" parent="1" vertex="1">
          <mxGeometry x="497" y="160" width="10" height="10" as="geometry" />
        </mxCell>
        <mxCell id="1Dst-Pp7yCYSwZfz3Zx6-192" value="" style="rounded=0;whiteSpace=wrap;html=1;fontColor=#B3B3B3;strokeColor=#0D0D0D;strokeWidth=0.5;" parent="1" vertex="1">
          <mxGeometry x="507" y="160" width="10" height="10" as="geometry" />
        </mxCell>
        <mxCell id="1Dst-Pp7yCYSwZfz3Zx6-193" value="" style="rounded=0;whiteSpace=wrap;html=1;fontColor=#B3B3B3;strokeColor=#0D0D0D;strokeWidth=0.5;" parent="1" vertex="1">
          <mxGeometry x="517" y="160" width="10" height="10" as="geometry" />
        </mxCell>
        <mxCell id="1Dst-Pp7yCYSwZfz3Zx6-194" value="" style="endArrow=none;dashed=1;html=1;dashPattern=1 3;strokeWidth=1;rounded=0;exitX=1;exitY=0.5;exitDx=0;exitDy=0;entryX=0;entryY=0.5;entryDx=0;entryDy=0;fontColor=#B3B3B3;strokeColor=#0D0D0D;" parent="1" edge="1">
          <mxGeometry width="50" height="50" relative="1" as="geometry">
            <mxPoint x="447" y="165" as="sourcePoint" />
            <mxPoint x="477" y="165" as="targetPoint" />
          </mxGeometry>
        </mxCell>
        <mxCell id="1Dst-Pp7yCYSwZfz3Zx6-195" value="" style="rounded=0;whiteSpace=wrap;html=1;fontColor=#B3B3B3;strokeColor=#0D0D0D;strokeWidth=0.5;" parent="1" vertex="1">
          <mxGeometry x="245" y="170" width="10" height="10" as="geometry" />
        </mxCell>
        <mxCell id="1Dst-Pp7yCYSwZfz3Zx6-196" value="" style="rounded=0;whiteSpace=wrap;html=1;fontColor=#B3B3B3;strokeColor=#0D0D0D;strokeWidth=0.5;" parent="1" vertex="1">
          <mxGeometry x="255" y="170" width="10" height="10" as="geometry" />
        </mxCell>
        <mxCell id="1Dst-Pp7yCYSwZfz3Zx6-197" value="" style="rounded=0;whiteSpace=wrap;html=1;fontColor=#B3B3B3;strokeColor=#0D0D0D;strokeWidth=0.5;" parent="1" vertex="1">
          <mxGeometry x="265" y="170" width="10" height="10" as="geometry" />
        </mxCell>
        <mxCell id="1Dst-Pp7yCYSwZfz3Zx6-198" value="" style="rounded=0;whiteSpace=wrap;html=1;fontColor=#B3B3B3;strokeColor=#0D0D0D;strokeWidth=0.5;" parent="1" vertex="1">
          <mxGeometry x="275" y="170" width="10" height="10" as="geometry" />
        </mxCell>
        <mxCell id="1Dst-Pp7yCYSwZfz3Zx6-199" value="" style="rounded=0;whiteSpace=wrap;html=1;fontColor=#B3B3B3;strokeColor=#0D0D0D;strokeWidth=0.5;" parent="1" vertex="1">
          <mxGeometry x="285" y="170" width="10" height="10" as="geometry" />
        </mxCell>
        <mxCell id="1Dst-Pp7yCYSwZfz3Zx6-200" value="" style="rounded=0;whiteSpace=wrap;html=1;fontColor=#B3B3B3;strokeColor=#0D0D0D;strokeWidth=0.5;" parent="1" vertex="1">
          <mxGeometry x="295" y="170" width="10" height="10" as="geometry" />
        </mxCell>
        <mxCell id="1Dst-Pp7yCYSwZfz3Zx6-201" value="" style="rounded=0;whiteSpace=wrap;html=1;fontColor=#B3B3B3;strokeColor=#0D0D0D;strokeWidth=0.5;" parent="1" vertex="1">
          <mxGeometry x="305" y="170" width="10" height="10" as="geometry" />
        </mxCell>
        <mxCell id="1Dst-Pp7yCYSwZfz3Zx6-202" value="" style="rounded=0;whiteSpace=wrap;html=1;fontColor=#B3B3B3;strokeColor=#0D0D0D;strokeWidth=0.5;" parent="1" vertex="1">
          <mxGeometry x="315" y="170" width="10" height="10" as="geometry" />
        </mxCell>
        <mxCell id="1Dst-Pp7yCYSwZfz3Zx6-203" value="" style="rounded=0;whiteSpace=wrap;html=1;fontColor=#B3B3B3;strokeColor=#0D0D0D;strokeWidth=0.5;" parent="1" vertex="1">
          <mxGeometry x="325" y="170" width="10" height="10" as="geometry" />
        </mxCell>
        <mxCell id="1Dst-Pp7yCYSwZfz3Zx6-204" value="" style="rounded=0;whiteSpace=wrap;html=1;fontColor=#B3B3B3;strokeColor=#0D0D0D;strokeWidth=0.5;" parent="1" vertex="1">
          <mxGeometry x="335" y="170" width="10" height="10" as="geometry" />
        </mxCell>
        <mxCell id="1Dst-Pp7yCYSwZfz3Zx6-205" value="" style="rounded=0;whiteSpace=wrap;html=1;fontColor=#B3B3B3;strokeColor=#0D0D0D;strokeWidth=0.5;" parent="1" vertex="1">
          <mxGeometry x="345" y="170" width="10" height="10" as="geometry" />
        </mxCell>
        <mxCell id="1Dst-Pp7yCYSwZfz3Zx6-206" value="" style="rounded=0;whiteSpace=wrap;html=1;fontColor=#B3B3B3;strokeColor=#0D0D0D;strokeWidth=0.5;" parent="1" vertex="1">
          <mxGeometry x="355" y="170" width="10" height="10" as="geometry" />
        </mxCell>
        <mxCell id="1Dst-Pp7yCYSwZfz3Zx6-207" value="" style="rounded=0;whiteSpace=wrap;html=1;fontColor=#B3B3B3;strokeColor=#0D0D0D;strokeWidth=0.5;" parent="1" vertex="1">
          <mxGeometry x="365" y="170" width="10" height="10" as="geometry" />
        </mxCell>
        <mxCell id="1Dst-Pp7yCYSwZfz3Zx6-208" value="" style="rounded=0;whiteSpace=wrap;html=1;fontColor=#B3B3B3;strokeColor=#0D0D0D;strokeWidth=0.5;" parent="1" vertex="1">
          <mxGeometry x="375" y="170" width="10" height="10" as="geometry" />
        </mxCell>
        <mxCell id="1Dst-Pp7yCYSwZfz3Zx6-209" value="" style="rounded=0;whiteSpace=wrap;html=1;fontColor=#B3B3B3;strokeColor=#0D0D0D;strokeWidth=0.5;" parent="1" vertex="1">
          <mxGeometry x="385" y="170" width="10" height="10" as="geometry" />
        </mxCell>
        <mxCell id="1Dst-Pp7yCYSwZfz3Zx6-210" value="" style="rounded=0;whiteSpace=wrap;html=1;fontColor=#B3B3B3;strokeColor=#0D0D0D;strokeWidth=0.5;" parent="1" vertex="1">
          <mxGeometry x="395" y="170" width="10" height="10" as="geometry" />
        </mxCell>
        <mxCell id="1Dst-Pp7yCYSwZfz3Zx6-211" value="" style="rounded=0;whiteSpace=wrap;html=1;fontColor=#B3B3B3;strokeColor=#0D0D0D;strokeWidth=0.5;" parent="1" vertex="1">
          <mxGeometry x="405" y="170" width="10" height="10" as="geometry" />
        </mxCell>
        <mxCell id="1Dst-Pp7yCYSwZfz3Zx6-212" value="" style="rounded=0;whiteSpace=wrap;html=1;fontColor=#B3B3B3;strokeColor=#0D0D0D;strokeWidth=0.5;" parent="1" vertex="1">
          <mxGeometry x="415" y="170" width="10" height="10" as="geometry" />
        </mxCell>
        <mxCell id="1Dst-Pp7yCYSwZfz3Zx6-213" value="" style="rounded=0;whiteSpace=wrap;html=1;fontColor=#B3B3B3;strokeColor=#0D0D0D;strokeWidth=0.5;" parent="1" vertex="1">
          <mxGeometry x="425" y="170" width="10" height="10" as="geometry" />
        </mxCell>
        <mxCell id="1Dst-Pp7yCYSwZfz3Zx6-214" value="" style="rounded=0;whiteSpace=wrap;html=1;fontColor=#B3B3B3;strokeColor=#0D0D0D;strokeWidth=0.5;" parent="1" vertex="1">
          <mxGeometry x="435" y="170" width="10" height="10" as="geometry" />
        </mxCell>
        <mxCell id="1Dst-Pp7yCYSwZfz3Zx6-215" value="" style="rounded=0;whiteSpace=wrap;html=1;fontColor=#B3B3B3;strokeColor=#0D0D0D;strokeWidth=0.5;" parent="1" vertex="1">
          <mxGeometry x="477" y="170" width="10" height="10" as="geometry" />
        </mxCell>
        <mxCell id="1Dst-Pp7yCYSwZfz3Zx6-216" value="" style="rounded=0;whiteSpace=wrap;html=1;fontColor=#B3B3B3;strokeColor=#0D0D0D;strokeWidth=0.5;" parent="1" vertex="1">
          <mxGeometry x="487" y="170" width="10" height="10" as="geometry" />
        </mxCell>
        <mxCell id="1Dst-Pp7yCYSwZfz3Zx6-217" value="" style="rounded=0;whiteSpace=wrap;html=1;fontColor=#B3B3B3;strokeColor=#0D0D0D;strokeWidth=0.5;" parent="1" vertex="1">
          <mxGeometry x="497" y="170" width="10" height="10" as="geometry" />
        </mxCell>
        <mxCell id="1Dst-Pp7yCYSwZfz3Zx6-218" value="" style="rounded=0;whiteSpace=wrap;html=1;fontColor=#B3B3B3;strokeColor=#0D0D0D;strokeWidth=0.5;" parent="1" vertex="1">
          <mxGeometry x="507" y="170" width="10" height="10" as="geometry" />
        </mxCell>
        <mxCell id="1Dst-Pp7yCYSwZfz3Zx6-219" value="" style="rounded=0;whiteSpace=wrap;html=1;fontColor=#B3B3B3;strokeColor=#0D0D0D;strokeWidth=0.5;" parent="1" vertex="1">
          <mxGeometry x="517" y="170" width="10" height="10" as="geometry" />
        </mxCell>
        <mxCell id="1Dst-Pp7yCYSwZfz3Zx6-220" value="" style="endArrow=none;dashed=1;html=1;dashPattern=1 3;strokeWidth=1;rounded=0;exitX=1;exitY=0.5;exitDx=0;exitDy=0;entryX=0;entryY=0.5;entryDx=0;entryDy=0;fontColor=#B3B3B3;strokeColor=#0D0D0D;" parent="1" edge="1">
          <mxGeometry width="50" height="50" relative="1" as="geometry">
            <mxPoint x="447" y="175" as="sourcePoint" />
            <mxPoint x="477" y="175" as="targetPoint" />
          </mxGeometry>
        </mxCell>
        <mxCell id="1Dst-Pp7yCYSwZfz3Zx6-221" value="" style="rounded=0;whiteSpace=wrap;html=1;fontColor=#B3B3B3;strokeColor=#0D0D0D;strokeWidth=0.5;" parent="1" vertex="1">
          <mxGeometry x="245" y="220" width="10" height="10" as="geometry" />
        </mxCell>
        <mxCell id="1Dst-Pp7yCYSwZfz3Zx6-222" value="" style="rounded=0;whiteSpace=wrap;html=1;fontColor=#B3B3B3;strokeColor=#0D0D0D;strokeWidth=0.5;" parent="1" vertex="1">
          <mxGeometry x="255" y="220" width="10" height="10" as="geometry" />
        </mxCell>
        <mxCell id="1Dst-Pp7yCYSwZfz3Zx6-223" value="" style="rounded=0;whiteSpace=wrap;html=1;fontColor=#B3B3B3;strokeColor=#0D0D0D;strokeWidth=0.5;" parent="1" vertex="1">
          <mxGeometry x="265" y="220" width="10" height="10" as="geometry" />
        </mxCell>
        <mxCell id="1Dst-Pp7yCYSwZfz3Zx6-224" value="" style="rounded=0;whiteSpace=wrap;html=1;fontColor=#B3B3B3;strokeColor=#0D0D0D;strokeWidth=0.5;" parent="1" vertex="1">
          <mxGeometry x="275" y="220" width="10" height="10" as="geometry" />
        </mxCell>
        <mxCell id="1Dst-Pp7yCYSwZfz3Zx6-225" value="" style="rounded=0;whiteSpace=wrap;html=1;fontColor=#B3B3B3;strokeColor=#0D0D0D;strokeWidth=0.5;" parent="1" vertex="1">
          <mxGeometry x="285" y="220" width="10" height="10" as="geometry" />
        </mxCell>
        <mxCell id="1Dst-Pp7yCYSwZfz3Zx6-226" value="" style="rounded=0;whiteSpace=wrap;html=1;fontColor=#B3B3B3;strokeColor=#0D0D0D;strokeWidth=0.5;" parent="1" vertex="1">
          <mxGeometry x="295" y="220" width="10" height="10" as="geometry" />
        </mxCell>
        <mxCell id="1Dst-Pp7yCYSwZfz3Zx6-227" value="" style="rounded=0;whiteSpace=wrap;html=1;fontColor=#B3B3B3;strokeColor=#0D0D0D;strokeWidth=0.5;" parent="1" vertex="1">
          <mxGeometry x="305" y="220" width="10" height="10" as="geometry" />
        </mxCell>
        <mxCell id="1Dst-Pp7yCYSwZfz3Zx6-228" value="" style="rounded=0;whiteSpace=wrap;html=1;fontColor=#B3B3B3;strokeColor=#0D0D0D;strokeWidth=0.5;" parent="1" vertex="1">
          <mxGeometry x="315" y="220" width="10" height="10" as="geometry" />
        </mxCell>
        <mxCell id="1Dst-Pp7yCYSwZfz3Zx6-229" value="" style="rounded=0;whiteSpace=wrap;html=1;fontColor=#B3B3B3;strokeColor=#0D0D0D;strokeWidth=0.5;" parent="1" vertex="1">
          <mxGeometry x="325" y="220" width="10" height="10" as="geometry" />
        </mxCell>
        <mxCell id="1Dst-Pp7yCYSwZfz3Zx6-230" value="" style="rounded=0;whiteSpace=wrap;html=1;fontColor=#B3B3B3;strokeColor=#0D0D0D;strokeWidth=0.5;" parent="1" vertex="1">
          <mxGeometry x="335" y="220" width="10" height="10" as="geometry" />
        </mxCell>
        <mxCell id="1Dst-Pp7yCYSwZfz3Zx6-231" value="" style="rounded=0;whiteSpace=wrap;html=1;fontColor=#B3B3B3;strokeColor=#0D0D0D;strokeWidth=0.5;" parent="1" vertex="1">
          <mxGeometry x="345" y="220" width="10" height="10" as="geometry" />
        </mxCell>
        <mxCell id="1Dst-Pp7yCYSwZfz3Zx6-232" value="" style="rounded=0;whiteSpace=wrap;html=1;fontColor=#B3B3B3;strokeColor=#0D0D0D;strokeWidth=0.5;" parent="1" vertex="1">
          <mxGeometry x="355" y="220" width="10" height="10" as="geometry" />
        </mxCell>
        <mxCell id="1Dst-Pp7yCYSwZfz3Zx6-233" value="" style="rounded=0;whiteSpace=wrap;html=1;fontColor=#B3B3B3;strokeColor=#0D0D0D;strokeWidth=0.5;" parent="1" vertex="1">
          <mxGeometry x="365" y="220" width="10" height="10" as="geometry" />
        </mxCell>
        <mxCell id="1Dst-Pp7yCYSwZfz3Zx6-234" value="" style="rounded=0;whiteSpace=wrap;html=1;fontColor=#B3B3B3;strokeColor=#0D0D0D;strokeWidth=0.5;" parent="1" vertex="1">
          <mxGeometry x="375" y="220" width="10" height="10" as="geometry" />
        </mxCell>
        <mxCell id="1Dst-Pp7yCYSwZfz3Zx6-235" value="" style="rounded=0;whiteSpace=wrap;html=1;fontColor=#B3B3B3;strokeColor=#0D0D0D;strokeWidth=0.5;" parent="1" vertex="1">
          <mxGeometry x="385" y="220" width="10" height="10" as="geometry" />
        </mxCell>
        <mxCell id="1Dst-Pp7yCYSwZfz3Zx6-236" value="" style="rounded=0;whiteSpace=wrap;html=1;fontColor=#B3B3B3;strokeColor=#0D0D0D;strokeWidth=0.5;" parent="1" vertex="1">
          <mxGeometry x="395" y="220" width="10" height="10" as="geometry" />
        </mxCell>
        <mxCell id="1Dst-Pp7yCYSwZfz3Zx6-237" value="" style="rounded=0;whiteSpace=wrap;html=1;fontColor=#B3B3B3;strokeColor=#0D0D0D;strokeWidth=0.5;" parent="1" vertex="1">
          <mxGeometry x="405" y="220" width="10" height="10" as="geometry" />
        </mxCell>
        <mxCell id="1Dst-Pp7yCYSwZfz3Zx6-238" value="" style="rounded=0;whiteSpace=wrap;html=1;fontColor=#B3B3B3;strokeColor=#0D0D0D;strokeWidth=0.5;" parent="1" vertex="1">
          <mxGeometry x="415" y="220" width="10" height="10" as="geometry" />
        </mxCell>
        <mxCell id="1Dst-Pp7yCYSwZfz3Zx6-239" value="" style="rounded=0;whiteSpace=wrap;html=1;fontColor=#B3B3B3;strokeColor=#0D0D0D;strokeWidth=0.5;" parent="1" vertex="1">
          <mxGeometry x="425" y="220" width="10" height="10" as="geometry" />
        </mxCell>
        <mxCell id="1Dst-Pp7yCYSwZfz3Zx6-240" value="" style="rounded=0;whiteSpace=wrap;html=1;fontColor=#B3B3B3;strokeColor=#0D0D0D;strokeWidth=0.5;" parent="1" vertex="1">
          <mxGeometry x="435" y="220" width="10" height="10" as="geometry" />
        </mxCell>
        <mxCell id="1Dst-Pp7yCYSwZfz3Zx6-241" value="" style="rounded=0;whiteSpace=wrap;html=1;fontColor=#B3B3B3;strokeColor=#0D0D0D;strokeWidth=0.5;" parent="1" vertex="1">
          <mxGeometry x="477" y="220" width="10" height="10" as="geometry" />
        </mxCell>
        <mxCell id="1Dst-Pp7yCYSwZfz3Zx6-242" value="" style="rounded=0;whiteSpace=wrap;html=1;fontColor=#B3B3B3;strokeColor=#0D0D0D;strokeWidth=0.5;" parent="1" vertex="1">
          <mxGeometry x="487" y="220" width="10" height="10" as="geometry" />
        </mxCell>
        <mxCell id="1Dst-Pp7yCYSwZfz3Zx6-243" value="" style="rounded=0;whiteSpace=wrap;html=1;fontColor=#B3B3B3;strokeColor=#0D0D0D;strokeWidth=0.5;" parent="1" vertex="1">
          <mxGeometry x="497" y="220" width="10" height="10" as="geometry" />
        </mxCell>
        <mxCell id="1Dst-Pp7yCYSwZfz3Zx6-244" value="" style="rounded=0;whiteSpace=wrap;html=1;fontColor=#B3B3B3;strokeColor=#0D0D0D;strokeWidth=0.5;" parent="1" vertex="1">
          <mxGeometry x="507" y="220" width="10" height="10" as="geometry" />
        </mxCell>
        <mxCell id="1Dst-Pp7yCYSwZfz3Zx6-245" value="" style="rounded=0;whiteSpace=wrap;html=1;fontColor=#B3B3B3;strokeColor=#0D0D0D;strokeWidth=0.5;" parent="1" vertex="1">
          <mxGeometry x="517" y="220" width="10" height="10" as="geometry" />
        </mxCell>
        <mxCell id="1Dst-Pp7yCYSwZfz3Zx6-246" value="" style="endArrow=none;dashed=1;html=1;dashPattern=1 3;strokeWidth=1;rounded=0;exitX=1;exitY=0.5;exitDx=0;exitDy=0;entryX=0;entryY=0.5;entryDx=0;entryDy=0;fontColor=#B3B3B3;strokeColor=#0D0D0D;" parent="1" edge="1">
          <mxGeometry width="50" height="50" relative="1" as="geometry">
            <mxPoint x="447" y="225" as="sourcePoint" />
            <mxPoint x="477" y="225" as="targetPoint" />
          </mxGeometry>
        </mxCell>
        <mxCell id="1Dst-Pp7yCYSwZfz3Zx6-247" value="" style="endArrow=none;dashed=1;html=1;dashPattern=1 3;strokeWidth=1;rounded=0;exitX=0.5;exitY=1;exitDx=0;exitDy=0;entryX=0.5;entryY=0;entryDx=0;entryDy=0;fontColor=#B3B3B3;strokeColor=#0D0D0D;" parent="1" edge="1">
          <mxGeometry width="50" height="50" relative="1" as="geometry">
            <mxPoint x="250" y="180" as="sourcePoint" />
            <mxPoint x="250" y="210" as="targetPoint" />
          </mxGeometry>
        </mxCell>
        <mxCell id="1Dst-Pp7yCYSwZfz3Zx6-248" value="" style="endArrow=none;dashed=1;html=1;dashPattern=1 3;strokeWidth=1;rounded=0;exitX=0.5;exitY=1;exitDx=0;exitDy=0;entryX=0.5;entryY=0;entryDx=0;entryDy=0;fontColor=#B3B3B3;strokeColor=#0D0D0D;" parent="1" edge="1">
          <mxGeometry width="50" height="50" relative="1" as="geometry">
            <mxPoint x="260" y="180" as="sourcePoint" />
            <mxPoint x="260" y="210" as="targetPoint" />
          </mxGeometry>
        </mxCell>
        <mxCell id="1Dst-Pp7yCYSwZfz3Zx6-249" value="" style="endArrow=open;startArrow=open;html=1;rounded=0;startFill=0;endFill=0;" parent="1" edge="1">
          <mxGeometry width="50" height="50" relative="1" as="geometry">
            <mxPoint x="230" y="230" as="sourcePoint" />
            <mxPoint x="230" y="120" as="targetPoint" />
          </mxGeometry>
        </mxCell>
        <mxCell id="1Dst-Pp7yCYSwZfz3Zx6-250" value="" style="endArrow=open;startArrow=open;html=1;rounded=0;startFill=0;endFill=0;" parent="1" edge="1">
          <mxGeometry width="50" height="50" relative="1" as="geometry">
            <mxPoint x="529" y="108" as="sourcePoint" />
            <mxPoint x="243" y="108" as="targetPoint" />
          </mxGeometry>
        </mxCell>
        <mxCell id="1Dst-Pp7yCYSwZfz3Zx6-251" value="80" style="text;html=1;strokeColor=none;fillColor=none;align=center;verticalAlign=middle;whiteSpace=wrap;rounded=0;fontFamily=Computer Modern;" parent="1" vertex="1">
          <mxGeometry x="351" y="85" width="60" height="30" as="geometry" />
        </mxCell>
        <mxCell id="1Dst-Pp7yCYSwZfz3Zx6-252" value="25" style="text;html=1;strokeColor=none;fillColor=none;align=center;verticalAlign=middle;whiteSpace=wrap;rounded=0;fontFamily=Computer Modern;" parent="1" vertex="1">
          <mxGeometry x="190" y="162" width="60" height="30" as="geometry" />
        </mxCell>
        <mxCell id="XLa4vJKcHBcVHxrOMc_z-2" value="Reserved" style="rounded=0;whiteSpace=wrap;html=1;fillColor=#f5f5f5;fontColor=#333333;strokeColor=#0D0D0D;fontFamily=Computer Modern;fontStyle=2" parent="1" vertex="1">
          <mxGeometry x="342" y="250" width="185" height="50" as="geometry" />
        </mxCell>
      </root>
    </mxGraphModel>
  </diagram>
</mxfile>
